<?xml version="1.0" encoding="utf-8" standalone="no"?>
<!DOCTYPE svg PUBLIC "-//W3C//DTD SVG 1.1//EN"
  "http://www.w3.org/Graphics/SVG/1.1/DTD/svg11.dtd">
<!-- Created with matplotlib (http://matplotlib.org/) -->
<svg height="345pt" version="1.1" viewBox="0 0 460 345" width="460pt" xmlns="http://www.w3.org/2000/svg" xmlns:xlink="http://www.w3.org/1999/xlink">
 <defs>
  <style type="text/css">
*{stroke-linecap:butt;stroke-linejoin:round;}
  </style>
 </defs>
 <g id="figure_1">
  <g id="patch_1">
   <path d="M 0 345.6 
L 460.8 345.6 
L 460.8 0 
L 0 0 
z
" style="fill:#ffffff;"/>
  </g>
  <g id="axes_1">
   <g id="PathCollection_1">
    <path clip-path="url(#p408d3248df)" d="M 337.801846 136.342407 
L 343.296 138.233856 
L 348.790154 137.747591 
L 352.725759 133.796571 
L 352.677427 128.365714 
L 349.456014 122.934857 
L 348.790154 122.313304 
L 343.296 119.006199 
L 337.801846 117.654359 
L 332.307692 118.53285 
L 327.067569 122.934857 
L 327.860863 128.365714 
L 332.307692 133.241536 
L 332.925598 133.796571 
z
" style="fill:#e5f5e0;"/>
   </g>
   <g id="PathCollection_2">
    <path clip-path="url(#p408d3248df)" d="M 348.790154 145.959715 
L 354.284308 145.650255 
L 356.451834 144.658286 
L 359.778462 141.892374 
L 361.569409 139.227429 
L 362.799679 133.796571 
L 362.180635 128.365714 
L 359.872558 122.934857 
L 359.778462 122.798298 
L 355.571714 117.504 
L 354.284308 116.337776 
L 348.790154 112.683841 
L 347.322456 112.073143 
L 343.296 110.51161 
L 337.801846 109.549719 
L 332.307692 109.669596 
L 326.813538 110.969788 
L 324.506385 112.073143 
L 321.319385 114.204542 
L 318.462398 117.504 
L 317.404302 122.934857 
L 319.532974 128.365714 
L 321.319385 130.251808 
L 324.563935 133.796571 
L 326.813538 135.396727 
L 332.18649 139.227429 
L 332.307692 139.300138 
L 337.801846 142.155396 
L 343.296 144.635975 
L 343.39669 144.658286 
z
M 332.925598 133.796571 
L 332.307692 133.241536 
L 327.860863 128.365714 
L 327.067569 122.934857 
L 332.307692 118.53285 
L 337.801846 117.654359 
L 343.296 119.006199 
L 348.790154 122.313304 
L 349.456014 122.934857 
L 352.677427 128.365714 
L 352.725759 133.796571 
L 348.790154 137.747591 
L 343.296 138.233856 
L 337.801846 136.342407 
z
" style="fill:#a1d99b;"/>
   </g>
   <g id="PathCollection_3">
    <path clip-path="url(#p408d3248df)" d="M 348.790154 152.686841 
L 354.284308 154.324164 
L 359.778462 154.247911 
L 365.272615 151.670343 
L 367.06009 150.089143 
L 370.766769 144.731562 
L 370.809823 144.658286 
L 372.633947 139.227429 
L 373.041202 133.796571 
L 372.294513 128.365714 
L 370.766769 124.089993 
L 370.400598 122.934857 
L 367.528105 117.504 
L 365.272615 114.643732 
L 363.004073 112.073143 
L 359.778462 109.159223 
L 356.073657 106.642286 
L 354.284308 105.486772 
L 348.790154 102.937205 
L 343.296 101.467926 
L 341.323709 101.211429 
L 337.801846 100.638762 
L 332.307692 100.608445 
L 328.377404 101.211429 
L 326.813538 101.409728 
L 321.319385 102.95315 
L 315.825231 105.817598 
L 314.734734 106.642286 
L 310.331077 111.278011 
L 309.806444 112.073143 
L 308.328773 117.504 
L 309.300255 122.934857 
L 310.331077 124.549283 
L 312.460598 128.365714 
L 315.825231 131.651447 
L 317.872772 133.796571 
L 321.319385 136.218497 
L 325.399481 139.227429 
L 326.813538 140.094103 
L 332.307692 143.492272 
L 334.296558 144.658286 
L 337.801846 146.827117 
L 343.296 149.917476 
L 343.73684 150.089143 
z
M 343.39669 144.658286 
L 343.296 144.635975 
L 337.801846 142.155396 
L 332.307692 139.300138 
L 332.18649 139.227429 
L 326.813538 135.396727 
L 324.563935 133.796571 
L 321.319385 130.251808 
L 319.532974 128.365714 
L 317.404302 122.934857 
L 318.462398 117.504 
L 321.319385 114.204542 
L 324.506385 112.073143 
L 326.813538 110.969788 
L 332.307692 109.669596 
L 337.801846 109.549719 
L 343.296 110.51161 
L 347.322456 112.073143 
L 348.790154 112.683841 
L 354.284308 116.337776 
L 355.571714 117.504 
L 359.778462 122.798298 
L 359.872558 122.934857 
L 362.180635 128.365714 
L 362.799679 133.796571 
L 361.569409 139.227429 
L 359.778462 141.892374 
L 356.451834 144.658286 
L 354.284308 145.650255 
L 348.790154 145.959715 
z
" style="fill:#31a354;"/>
   </g>
   <g id="PathCollection_4">
    <path clip-path="url(#p408d3248df)" d="M 101.553231 307.584 
L 107.047385 307.584 
L 112.541538 307.584 
L 118.035692 307.584 
L 123.529846 307.584 
L 129.024 307.584 
L 134.518154 307.584 
L 140.012308 307.584 
L 145.506462 307.584 
L 151.000615 307.584 
L 156.494769 307.584 
L 161.988923 307.584 
L 167.483077 307.584 
L 172.977231 307.584 
L 178.471385 307.584 
L 183.965538 307.584 
L 189.459692 307.584 
L 194.953846 307.584 
L 200.448 307.584 
L 205.942154 307.584 
L 211.436308 307.584 
L 216.930462 307.584 
L 222.424615 307.584 
L 227.918769 307.584 
L 233.412923 307.584 
L 238.907077 307.584 
L 244.401231 307.584 
L 249.895385 307.584 
L 255.389538 307.584 
L 260.883692 307.584 
L 266.377846 307.584 
L 271.872 307.584 
L 277.366154 307.584 
L 282.860308 307.584 
L 288.354462 307.584 
L 293.848615 307.584 
L 299.342769 307.584 
L 304.836923 307.584 
L 310.331077 307.584 
L 315.825231 307.584 
L 321.319385 307.584 
L 326.813538 307.584 
L 332.307692 307.584 
L 337.801846 307.584 
L 343.296 307.584 
L 348.790154 307.584 
L 354.284308 307.584 
L 358.171015 307.584 
L 357.229511 302.153143 
L 356.883487 296.722286 
L 357.018476 291.291429 
L 357.637649 285.860571 
L 359.00488 280.429714 
L 359.778462 278.750031 
L 360.707007 274.998857 
L 362.634755 269.568 
L 365.272615 264.766966 
L 365.476561 264.137143 
L 367.814322 258.706286 
L 370.766769 253.74617 
L 370.984496 253.275429 
L 374.102149 247.844571 
L 376.260923 244.589116 
L 377.733845 242.413714 
L 381.061448 236.982857 
L 381.755077 235.005597 
L 383.254147 231.552 
L 382.613979 226.121143 
L 381.755077 224.826123 
L 378.660051 220.690286 
L 376.260923 218.535973 
L 370.766769 216.039881 
L 365.272615 216.853337 
L 360.86246 220.690286 
L 359.778462 221.652648 
L 356.926112 226.121143 
L 354.284308 230.886058 
L 354.008601 231.552 
L 352.304539 236.982857 
L 351.20824 242.413714 
L 350.609106 247.844571 
L 350.34736 253.275429 
L 350.204924 258.706286 
L 349.864284 264.137143 
L 348.790154 269.277996 
L 348.740221 269.568 
L 347.059238 274.998857 
L 343.296 279.816777 
L 342.706813 280.429714 
L 337.801846 284.243763 
L 334.150072 285.860571 
L 332.307692 286.690874 
L 326.813538 288.070231 
L 321.319385 288.259359 
L 315.825231 287.299838 
L 312.413528 285.860571 
L 310.331077 285.147256 
L 304.836923 281.749485 
L 303.395931 280.429714 
L 299.342769 276.551552 
L 298.065257 274.998857 
L 294.246171 269.568 
L 293.848615 268.892446 
L 290.998691 264.137143 
L 288.671188 258.706286 
L 288.354462 257.76616 
L 286.319642 253.275429 
L 284.472158 247.844571 
L 282.958958 242.413714 
L 282.860308 242.035726 
L 279.749627 236.982857 
L 277.366154 234.382841 
L 271.872 234.792175 
L 268.434612 236.982857 
L 266.377846 238.374012 
L 262.306167 242.413714 
L 260.883692 243.929134 
L 257.468433 247.844571 
L 255.389538 250.257425 
L 252.361153 253.275429 
L 249.895385 255.632165 
L 245.192507 258.706286 
L 244.401231 259.213927 
L 238.907077 261.240268 
L 233.412923 261.810168 
L 227.918769 261.078309 
L 222.424615 258.898423 
L 222.119491 258.706286 
L 216.930462 254.924953 
L 215.338748 253.275429 
L 211.517311 247.844571 
L 211.436308 247.682222 
L 209.036516 242.413714 
L 207.418195 236.982857 
L 206.190638 231.552 
L 205.942154 230.526151 
L 204.754588 226.121143 
L 202.937238 220.690286 
L 200.738787 215.259429 
L 200.448 214.671611 
L 197.766216 209.828571 
L 194.953846 204.465932 
L 194.913799 204.397714 
L 191.896686 198.966857 
L 189.70793 193.536 
L 189.459692 192.672335 
L 187.91432 188.105143 
L 186.924998 182.674286 
L 186.698443 177.243429 
L 187.181451 171.812571 
L 188.375178 166.381714 
L 189.459692 163.217075 
L 190.08843 160.950857 
L 192.024356 155.52 
L 194.458229 150.089143 
L 194.953846 149.083829 
L 196.683239 144.658286 
L 199.182171 139.227429 
L 200.448 136.865916 
L 201.810412 133.796571 
L 204.891609 128.365714 
L 205.942154 126.842204 
L 208.513923 122.934857 
L 211.436308 119.490177 
L 213.273047 117.504 
L 216.930462 114.086414 
L 219.636054 112.073143 
L 222.424615 110.002373 
L 227.918769 107.013136 
L 228.836675 106.642286 
L 233.412923 104.20761 
L 238.907077 102.059627 
L 241.710323 101.211429 
L 244.401231 99.013136 
L 247.740865 95.780571 
L 244.982886 90.349714 
L 244.401231 89.78568 
L 240.74627 84.918857 
L 238.907077 82.468691 
L 236.926122 79.488 
L 234.033745 74.057143 
L 233.412923 72.400845 
L 231.838623 68.626286 
L 230.537754 63.195429 
L 230.124986 57.764571 
L 230.558321 52.333714 
L 231.990052 46.902857 
L 233.412923 43.937141 
L 234.542842 41.472 
L 233.412923 41.472 
L 227.918769 41.472 
L 222.424615 41.472 
L 216.930462 41.472 
L 211.436308 41.472 
L 205.942154 41.472 
L 200.448 41.472 
L 194.953846 41.472 
L 189.459692 41.472 
L 183.965538 41.472 
L 178.471385 41.472 
L 172.977231 41.472 
L 167.483077 41.472 
L 161.988923 41.472 
L 156.494769 41.472 
L 151.000615 41.472 
L 145.506462 41.472 
L 140.012308 41.472 
L 134.518154 41.472 
L 129.024 41.472 
L 123.529846 41.472 
L 118.035692 41.472 
L 112.541538 41.472 
L 107.047385 41.472 
L 101.553231 41.472 
L 96.059077 41.472 
L 90.564923 41.472 
L 85.070769 41.472 
L 79.576615 41.472 
L 74.082462 41.472 
L 68.588308 41.472 
L 63.094154 41.472 
L 57.6 41.472 
L 57.6 46.902857 
L 57.6 52.333714 
L 57.6 57.764571 
L 57.6 63.195429 
L 57.6 68.626286 
L 57.6 74.057143 
L 57.6 79.488 
L 57.6 84.918857 
L 57.6 90.349714 
L 57.6 95.780571 
L 57.6 101.211429 
L 57.6 106.642286 
L 57.6 112.073143 
L 57.6 117.504 
L 57.6 122.934857 
L 57.6 128.365714 
L 57.6 133.796571 
L 57.6 139.227429 
L 57.6 144.658286 
L 57.6 150.089143 
L 57.6 155.52 
L 57.6 160.950857 
L 57.6 166.381714 
L 57.6 171.812571 
L 57.6 177.243429 
L 57.6 182.674286 
L 57.6 188.105143 
L 57.6 193.536 
L 57.6 198.966857 
L 57.6 204.397714 
L 57.6 209.828571 
L 57.6 215.259429 
L 57.6 220.690286 
L 57.6 226.121143 
L 57.6 231.552 
L 57.6 236.982857 
L 57.6 242.413714 
L 57.6 247.844571 
L 57.6 253.275429 
L 57.6 258.706286 
L 57.6 264.137143 
L 57.6 266.699096 
L 63.094154 267.069886 
L 68.588308 268.260337 
L 71.972949 269.568 
L 74.082462 270.264019 
L 79.576615 273.077293 
L 82.212326 274.998857 
L 85.070769 277.229736 
L 88.308043 280.429714 
L 90.564923 283.255226 
L 92.508884 285.860571 
L 95.354946 291.291429 
L 96.059077 293.376638 
L 97.381981 296.722286 
L 98.586307 302.153143 
L 98.961418 307.584 
z
" style="fill:#ffffcc;"/>
    <path clip-path="url(#p408d3248df)" d="M 414.72 307.584 
L 414.72 302.153143 
L 414.72 296.722286 
L 414.72 291.291429 
L 414.72 285.860571 
L 414.72 280.429714 
L 414.72 274.998857 
L 414.72 269.568 
L 414.72 266.396105 
L 413.615706 269.568 
L 411.580161 274.998857 
L 410.068851 280.429714 
L 409.368857 285.860571 
L 409.393611 291.291429 
L 409.878777 296.722286 
L 410.554687 302.153143 
L 411.202168 307.584 
z
" style="fill:#ffffcc;"/>
    <path clip-path="url(#p408d3248df)" d="M 414.72 245.220213 
L 414.72 242.413714 
L 414.72 236.982857 
L 414.72 231.552 
L 414.72 226.121143 
L 414.72 222.469032 
L 412.155149 226.121143 
L 410.453087 231.552 
L 411.34647 236.982857 
L 413.571408 242.413714 
z
" style="fill:#ffffcc;"/>
    <path clip-path="url(#p408d3248df)" d="M 348.790154 183.218413 
L 354.284308 186.391602 
L 359.778462 187.202284 
L 365.272615 186.2099 
L 370.766769 183.786281 
L 372.752259 182.674286 
L 376.260923 180.786715 
L 381.755077 178.216912 
L 384.768533 177.243429 
L 387.249231 176.350468 
L 392.743385 175.299936 
L 398.237538 175.216524 
L 403.731692 176.12942 
L 406.821807 177.243429 
L 409.225846 178.048547 
L 414.72 181.140355 
L 414.72 177.243429 
L 414.72 171.812571 
L 414.72 166.381714 
L 414.72 160.950857 
L 414.72 155.52 
L 414.72 150.089143 
L 414.72 144.658286 
L 414.72 139.227429 
L 414.72 133.796571 
L 414.72 128.365714 
L 414.72 122.934857 
L 414.72 117.504 
L 414.72 112.073143 
L 414.72 106.642286 
L 414.72 101.211429 
L 414.72 95.780571 
L 414.72 90.349714 
L 414.72 84.918857 
L 414.72 79.488 
L 414.72 74.057143 
L 414.72 68.626286 
L 414.72 63.195429 
L 414.72 57.764571 
L 414.72 52.333714 
L 414.72 46.902857 
L 414.72 41.472 
L 409.225846 41.472 
L 403.731692 41.472 
L 398.237538 41.472 
L 392.743385 41.472 
L 387.249231 41.472 
L 381.755077 41.472 
L 376.260923 41.472 
L 370.766769 41.472 
L 365.272615 41.472 
L 359.778462 41.472 
L 354.284308 41.472 
L 348.790154 41.472 
L 343.296 41.472 
L 337.801846 41.472 
L 332.307692 41.472 
L 326.813538 41.472 
L 321.319385 41.472 
L 315.825231 41.472 
L 310.331077 41.472 
L 304.836923 41.472 
L 299.342769 41.472 
L 294.031443 41.472 
L 299.05088 46.902857 
L 299.342769 47.395265 
L 302.504041 52.333714 
L 304.249395 57.764571 
L 304.814564 63.195429 
L 304.364141 68.626286 
L 302.755335 74.057143 
L 299.548133 79.488 
L 299.342769 79.742757 
L 294.917885 84.918857 
L 293.848615 85.943226 
L 288.354462 90.33127 
L 288.324058 90.349714 
L 282.860308 94.264553 
L 279.819007 95.780571 
L 277.366154 98.33593 
L 273.979336 101.211429 
L 276.656262 106.642286 
L 277.366154 107.087175 
L 282.336093 112.073143 
L 282.860308 112.423765 
L 287.994046 117.504 
L 288.354462 117.779118 
L 293.295259 122.934857 
L 293.848615 123.382714 
L 298.834258 128.365714 
L 299.342769 128.744632 
L 304.836923 133.276505 
L 305.413024 133.796571 
L 310.331077 136.974325 
L 313.634862 139.227429 
L 315.825231 140.442139 
L 321.319385 143.717851 
L 322.793508 144.658286 
L 326.813538 147.227388 
L 330.956405 150.089143 
L 332.307692 151.256441 
L 337.211599 155.52 
L 337.801846 156.341409 
L 341.610308 160.950857 
L 343.296 165.104834 
L 344.033694 166.381714 
L 345.374379 171.812571 
L 346.25757 177.243429 
L 348.348774 182.674286 
z
M 343.73684 150.089143 
L 343.296 149.917476 
L 337.801846 146.827117 
L 334.296558 144.658286 
L 332.307692 143.492272 
L 326.813538 140.094103 
L 325.399481 139.227429 
L 321.319385 136.218497 
L 317.872772 133.796571 
L 315.825231 131.651447 
L 312.460598 128.365714 
L 310.331077 124.549283 
L 309.300255 122.934857 
L 308.328773 117.504 
L 309.806444 112.073143 
L 310.331077 111.278011 
L 314.734734 106.642286 
L 315.825231 105.817598 
L 321.319385 102.95315 
L 326.813538 101.409728 
L 328.377404 101.211429 
L 332.307692 100.608445 
L 337.801846 100.638762 
L 341.323709 101.211429 
L 343.296 101.467926 
L 348.790154 102.937205 
L 354.284308 105.486772 
L 356.073657 106.642286 
L 359.778462 109.159223 
L 363.004073 112.073143 
L 365.272615 114.643732 
L 367.528105 117.504 
L 370.400598 122.934857 
L 370.766769 124.089993 
L 372.294513 128.365714 
L 373.041202 133.796571 
L 372.633947 139.227429 
L 370.809823 144.658286 
L 370.766769 144.731562 
L 367.06009 150.089143 
L 365.272615 151.670343 
L 359.778462 154.247911 
L 354.284308 154.324164 
L 348.790154 152.686841 
z
" style="fill:#ffffcc;"/>
   </g>
   <g id="PathCollection_5">
    <path clip-path="url(#p408d3248df)" d="M 85.070769 307.584 
L 90.564923 307.584 
L 96.059077 307.584 
L 98.961418 307.584 
L 98.586307 302.153143 
L 97.381981 296.722286 
L 96.059077 293.376638 
L 95.354946 291.291429 
L 92.508884 285.860571 
L 90.564923 283.255226 
L 88.308043 280.429714 
L 85.070769 277.229736 
L 82.212326 274.998857 
L 79.576615 273.077293 
L 74.082462 270.264019 
L 71.972949 269.568 
L 68.588308 268.260337 
L 63.094154 267.069886 
L 57.6 266.699096 
L 57.6 269.568 
L 57.6 274.998857 
L 57.6 280.429714 
L 57.6 282.683921 
L 63.094154 283.286525 
L 68.588308 285.221237 
L 69.679464 285.860571 
L 74.082462 288.86281 
L 76.539386 291.291429 
L 79.576615 295.6437 
L 80.223402 296.722286 
L 82.180662 302.153143 
L 82.79029 307.584 
z
" style="fill:#ffeda0;"/>
    <path clip-path="url(#p408d3248df)" d="M 359.778462 307.584 
L 365.272615 307.584 
L 370.766769 307.584 
L 376.260923 307.584 
L 376.297156 307.584 
L 376.260923 307.474132 
L 374.825172 302.153143 
L 374.485989 296.722286 
L 374.96805 291.291429 
L 375.915071 285.860571 
L 376.260923 283.968063 
L 377.016277 280.429714 
L 377.845948 274.998857 
L 378.440516 269.568 
L 379.245133 264.137143 
L 380.704751 258.706286 
L 381.755077 256.381459 
L 383.60339 253.275429 
L 387.249231 248.843824 
L 389.061267 247.844571 
L 392.743385 246.01173 
L 398.237538 247.151956 
L 398.989788 247.844571 
L 402.996313 253.275429 
L 403.731692 256.102518 
L 404.187283 258.706286 
L 403.731692 263.899767 
L 403.706377 264.137143 
L 402.087488 269.568 
L 400.516906 274.998857 
L 399.664926 280.429714 
L 399.647528 285.860571 
L 400.190531 291.291429 
L 400.883866 296.722286 
L 401.30813 302.153143 
L 401.019635 307.584 
L 403.731692 307.584 
L 409.225846 307.584 
L 411.202168 307.584 
L 410.554687 302.153143 
L 409.878777 296.722286 
L 409.393611 291.291429 
L 409.368857 285.860571 
L 410.068851 280.429714 
L 411.580161 274.998857 
L 413.615706 269.568 
L 414.72 266.396105 
L 414.72 264.137143 
L 414.72 258.706286 
L 414.72 253.275429 
L 414.72 247.844571 
L 414.72 245.220213 
L 413.571408 242.413714 
L 411.34647 236.982857 
L 410.453087 231.552 
L 412.155149 226.121143 
L 414.72 222.469032 
L 414.72 220.690286 
L 414.72 215.259429 
L 414.72 209.828571 
L 414.72 204.397714 
L 414.72 198.966857 
L 414.72 193.536 
L 414.72 188.105143 
L 414.72 182.674286 
L 414.72 181.140355 
L 409.225846 178.048547 
L 406.821807 177.243429 
L 403.731692 176.12942 
L 398.237538 175.216524 
L 392.743385 175.299936 
L 387.249231 176.350468 
L 384.768533 177.243429 
L 381.755077 178.216912 
L 376.260923 180.786715 
L 372.752259 182.674286 
L 370.766769 183.786281 
L 365.272615 186.2099 
L 359.778462 187.202284 
L 354.284308 186.391602 
L 348.790154 183.218413 
L 348.348774 182.674286 
L 346.25757 177.243429 
L 345.374379 171.812571 
L 344.033694 166.381714 
L 343.296 165.104834 
L 341.610308 160.950857 
L 337.801846 156.341409 
L 337.211599 155.52 
L 332.307692 151.256441 
L 330.956405 150.089143 
L 326.813538 147.227388 
L 322.793508 144.658286 
L 321.319385 143.717851 
L 315.825231 140.442139 
L 313.634862 139.227429 
L 310.331077 136.974325 
L 305.413024 133.796571 
L 304.836923 133.276505 
L 299.342769 128.744632 
L 298.834258 128.365714 
L 293.848615 123.382714 
L 293.295259 122.934857 
L 288.354462 117.779118 
L 287.994046 117.504 
L 282.860308 112.423765 
L 282.336093 112.073143 
L 277.366154 107.087175 
L 276.656262 106.642286 
L 273.979336 101.211429 
L 277.366154 98.33593 
L 279.819007 95.780571 
L 282.860308 94.264553 
L 288.324058 90.349714 
L 288.354462 90.33127 
L 293.848615 85.943226 
L 294.917885 84.918857 
L 299.342769 79.742757 
L 299.548133 79.488 
L 302.755335 74.057143 
L 304.364141 68.626286 
L 304.814564 63.195429 
L 304.249395 57.764571 
L 302.504041 52.333714 
L 299.342769 47.395265 
L 299.05088 46.902857 
L 294.031443 41.472 
L 293.848615 41.472 
L 288.354462 41.472 
L 282.860308 41.472 
L 277.366154 41.472 
L 271.872 41.472 
L 266.377846 41.472 
L 260.883692 41.472 
L 255.389538 41.472 
L 249.895385 41.472 
L 244.401231 41.472 
L 238.907077 41.472 
L 234.542842 41.472 
L 233.412923 43.937141 
L 231.990052 46.902857 
L 230.558321 52.333714 
L 230.124986 57.764571 
L 230.537754 63.195429 
L 231.838623 68.626286 
L 233.412923 72.400845 
L 234.033745 74.057143 
L 236.926122 79.488 
L 238.907077 82.468691 
L 240.74627 84.918857 
L 244.401231 89.78568 
L 244.982886 90.349714 
L 247.740865 95.780571 
L 244.401231 99.013136 
L 241.710323 101.211429 
L 238.907077 102.059627 
L 233.412923 104.20761 
L 228.836675 106.642286 
L 227.918769 107.013136 
L 222.424615 110.002373 
L 219.636054 112.073143 
L 216.930462 114.086414 
L 213.273047 117.504 
L 211.436308 119.490177 
L 208.513923 122.934857 
L 205.942154 126.842204 
L 204.891609 128.365714 
L 201.810412 133.796571 
L 200.448 136.865916 
L 199.182171 139.227429 
L 196.683239 144.658286 
L 194.953846 149.083829 
L 194.458229 150.089143 
L 192.024356 155.52 
L 190.08843 160.950857 
L 189.459692 163.217075 
L 188.375178 166.381714 
L 187.181451 171.812571 
L 186.698443 177.243429 
L 186.924998 182.674286 
L 187.91432 188.105143 
L 189.459692 192.672335 
L 189.70793 193.536 
L 191.896686 198.966857 
L 194.913799 204.397714 
L 194.953846 204.465932 
L 197.766216 209.828571 
L 200.448 214.671611 
L 200.738787 215.259429 
L 202.937238 220.690286 
L 204.754588 226.121143 
L 205.942154 230.526151 
L 206.190638 231.552 
L 207.418195 236.982857 
L 209.036516 242.413714 
L 211.436308 247.682222 
L 211.517311 247.844571 
L 215.338748 253.275429 
L 216.930462 254.924953 
L 222.119491 258.706286 
L 222.424615 258.898423 
L 227.918769 261.078309 
L 233.412923 261.810168 
L 238.907077 261.240268 
L 244.401231 259.213927 
L 245.192507 258.706286 
L 249.895385 255.632165 
L 252.361153 253.275429 
L 255.389538 250.257425 
L 257.468433 247.844571 
L 260.883692 243.929134 
L 262.306167 242.413714 
L 266.377846 238.374012 
L 268.434612 236.982857 
L 271.872 234.792175 
L 277.366154 234.382841 
L 279.749627 236.982857 
L 282.860308 242.035726 
L 282.958958 242.413714 
L 284.472158 247.844571 
L 286.319642 253.275429 
L 288.354462 257.76616 
L 288.671188 258.706286 
L 290.998691 264.137143 
L 293.848615 268.892446 
L 294.246171 269.568 
L 298.065257 274.998857 
L 299.342769 276.551552 
L 303.395931 280.429714 
L 304.836923 281.749485 
L 310.331077 285.147256 
L 312.413528 285.860571 
L 315.825231 287.299838 
L 321.319385 288.259359 
L 326.813538 288.070231 
L 332.307692 286.690874 
L 334.150072 285.860571 
L 337.801846 284.243763 
L 342.706813 280.429714 
L 343.296 279.816777 
L 347.059238 274.998857 
L 348.740221 269.568 
L 348.790154 269.277996 
L 349.864284 264.137143 
L 350.204924 258.706286 
L 350.34736 253.275429 
L 350.609106 247.844571 
L 351.20824 242.413714 
L 352.304539 236.982857 
L 354.008601 231.552 
L 354.284308 230.886058 
L 356.926112 226.121143 
L 359.778462 221.652648 
L 360.86246 220.690286 
L 365.272615 216.853337 
L 370.766769 216.039881 
L 376.260923 218.535973 
L 378.660051 220.690286 
L 381.755077 224.826123 
L 382.613979 226.121143 
L 383.254147 231.552 
L 381.755077 235.005597 
L 381.061448 236.982857 
L 377.733845 242.413714 
L 376.260923 244.589116 
L 374.102149 247.844571 
L 370.984496 253.275429 
L 370.766769 253.74617 
L 367.814322 258.706286 
L 365.476561 264.137143 
L 365.272615 264.766966 
L 362.634755 269.568 
L 360.707007 274.998857 
L 359.778462 278.750031 
L 359.00488 280.429714 
L 357.637649 285.860571 
L 357.018476 291.291429 
L 356.883487 296.722286 
L 357.229511 302.153143 
L 358.171015 307.584 
z
M 311.505599 269.568 
L 310.331077 268.961119 
L 305.026061 264.137143 
L 304.836923 263.918338 
L 301.357565 258.706286 
L 299.342769 254.058206 
L 299.012669 253.275429 
L 297.597912 247.844571 
L 297.046104 242.413714 
L 297.226515 236.982857 
L 297.999263 231.552 
L 299.070839 226.121143 
L 299.342769 223.642731 
L 299.703773 220.690286 
L 299.342769 218.521952 
L 298.572893 215.259429 
L 293.848615 210.377517 
L 293.022522 209.828571 
L 288.354462 207.773724 
L 282.860308 206.383908 
L 277.366154 206.544135 
L 271.872 208.699496 
L 270.274885 209.828571 
L 266.377846 212.587004 
L 263.044922 215.259429 
L 260.883692 216.955492 
L 255.592739 220.690286 
L 255.389538 220.842136 
L 249.895385 224.064868 
L 244.401231 226.013348 
L 242.84958 226.121143 
L 238.907077 226.483429 
L 237.791326 226.121143 
L 233.412923 224.749128 
L 228.565566 220.690286 
L 227.918769 220.154275 
L 223.950254 215.259429 
L 222.424615 213.36722 
L 220.007518 209.828571 
L 216.930462 205.186704 
L 216.428857 204.397714 
L 213.149969 198.966857 
L 211.436308 195.609273 
L 210.359353 193.536 
L 208.231815 188.105143 
L 206.949926 182.674286 
L 206.500793 177.243429 
L 206.789354 171.812571 
L 207.633152 166.381714 
L 208.830975 160.950857 
L 210.264788 155.52 
L 211.436308 151.75847 
L 211.878433 150.089143 
L 213.629464 144.658286 
L 215.956776 139.227429 
L 216.930462 137.490678 
L 218.998388 133.796571 
L 222.424615 129.381761 
L 223.340757 128.365714 
L 227.918769 124.306181 
L 230.072475 122.934857 
L 233.412923 120.974149 
L 238.907077 118.931227 
L 244.401231 117.894797 
L 249.895385 117.63589 
L 255.389538 118.033604 
L 260.883692 119.030243 
L 266.377846 120.614263 
L 271.872 122.839535 
L 272.062075 122.934857 
L 277.366154 125.297547 
L 282.775452 128.365714 
L 282.860308 128.409251 
L 288.354462 131.621978 
L 291.591575 133.796571 
L 293.848615 135.063726 
L 299.342769 138.279804 
L 300.891385 139.227429 
L 304.836923 141.212523 
L 310.331077 144.027251 
L 311.471811 144.658286 
L 315.825231 146.933271 
L 321.131481 150.089143 
L 321.319385 150.21884 
L 326.813538 154.609265 
L 327.854227 155.52 
L 331.821436 160.950857 
L 332.307692 162.456325 
L 333.675416 166.381714 
L 333.910452 171.812571 
L 333.209296 177.243429 
L 332.307692 182.581515 
L 332.292473 182.674286 
L 332.019268 188.105143 
L 332.307692 189.801548 
L 333.331393 193.536 
L 337.801846 198.713096 
L 338.125619 198.966857 
L 343.296 202.701188 
L 345.355357 204.397714 
L 348.636183 209.828571 
L 348.790154 214.810551 
L 348.800236 215.259429 
L 348.790154 215.297321 
L 347.573543 220.690286 
L 346.007935 226.121143 
L 344.574014 231.552 
L 343.398153 236.982857 
L 343.296 237.542198 
L 342.442777 242.413714 
L 341.573738 247.844571 
L 340.51259 253.275429 
L 338.89452 258.706286 
L 337.801846 261.160212 
L 336.073953 264.137143 
L 332.307692 268.480541 
L 330.594576 269.568 
L 326.813538 271.630137 
L 321.319385 272.54006 
L 315.825231 271.684783 
z
M 390.341906 204.397714 
L 392.35721 198.966857 
L 392.743385 198.727893 
L 398.237538 198.607347 
L 398.840021 198.966857 
L 401.651501 204.397714 
L 398.237538 209.303321 
L 392.743385 207.869472 
z
M 256.787329 74.057143 
L 255.389538 72.996531 
L 251.59186 68.626286 
L 249.895385 65.104183 
L 249.110762 63.195429 
L 248.520899 57.764571 
L 249.702495 52.333714 
L 249.895385 51.982777 
L 253.5789 46.902857 
L 255.389538 45.452158 
L 260.883692 43.05946 
L 266.377846 42.565177 
L 271.872 43.589055 
L 277.366154 46.060958 
L 278.592143 46.902857 
L 282.860308 50.953489 
L 284.000259 52.333714 
L 286.421172 57.764571 
L 286.78666 63.195429 
L 285.080695 68.626286 
L 282.860308 71.69261 
L 280.345333 74.057143 
L 277.366154 76.005002 
L 271.872 77.775732 
L 266.377846 77.904119 
L 260.883692 76.455618 
z
" style="fill:#ffeda0;"/>
   </g>
   <g id="PathCollection_6">
    <path clip-path="url(#p408d3248df)" d="M 74.082462 307.584 
L 79.576615 307.584 
L 82.79029 307.584 
L 82.180662 302.153143 
L 80.223402 296.722286 
L 79.576615 295.6437 
L 76.539386 291.291429 
L 74.082462 288.86281 
L 69.679464 285.860571 
L 68.588308 285.221237 
L 63.094154 283.286525 
L 57.6 282.683921 
L 57.6 285.860571 
L 57.6 291.291429 
L 57.6 295.207822 
L 63.094154 296.356337 
L 63.691165 296.722286 
L 68.588308 301.56301 
L 68.958522 302.153143 
L 70.120423 307.584 
z
" style="fill:#fed976;"/>
    <path clip-path="url(#p408d3248df)" d="M 376.260923 307.474132 
L 376.297156 307.584 
L 381.755077 307.584 
L 387.249231 307.584 
L 392.743385 307.584 
L 398.237538 307.584 
L 401.019635 307.584 
L 401.30813 302.153143 
L 400.883866 296.722286 
L 400.190531 291.291429 
L 399.647528 285.860571 
L 399.664926 280.429714 
L 400.516906 274.998857 
L 402.087488 269.568 
L 403.706377 264.137143 
L 403.731692 263.899767 
L 404.187283 258.706286 
L 403.731692 256.102518 
L 402.996313 253.275429 
L 398.989788 247.844571 
L 398.237538 247.151956 
L 392.743385 246.01173 
L 389.061267 247.844571 
L 387.249231 248.843824 
L 383.60339 253.275429 
L 381.755077 256.381459 
L 380.704751 258.706286 
L 379.245133 264.137143 
L 378.440516 269.568 
L 377.845948 274.998857 
L 377.016277 280.429714 
L 376.260923 283.968063 
L 375.915071 285.860571 
L 374.96805 291.291429 
L 374.485989 296.722286 
L 374.825172 302.153143 
z
" style="fill:#fed976;"/>
    <path clip-path="url(#p408d3248df)" d="M 315.825231 271.684783 
L 321.319385 272.54006 
L 326.813538 271.630137 
L 330.594576 269.568 
L 332.307692 268.480541 
L 336.073953 264.137143 
L 337.801846 261.160212 
L 338.89452 258.706286 
L 340.51259 253.275429 
L 341.573738 247.844571 
L 342.442777 242.413714 
L 343.296 237.542198 
L 343.398153 236.982857 
L 344.574014 231.552 
L 346.007935 226.121143 
L 347.573543 220.690286 
L 348.790154 215.297321 
L 348.800236 215.259429 
L 348.790154 214.810551 
L 348.636183 209.828571 
L 345.355357 204.397714 
L 343.296 202.701188 
L 338.125619 198.966857 
L 337.801846 198.713096 
L 333.331393 193.536 
L 332.307692 189.801548 
L 332.019268 188.105143 
L 332.292473 182.674286 
L 332.307692 182.581515 
L 333.209296 177.243429 
L 333.910452 171.812571 
L 333.675416 166.381714 
L 332.307692 162.456325 
L 331.821436 160.950857 
L 327.854227 155.52 
L 326.813538 154.609265 
L 321.319385 150.21884 
L 321.131481 150.089143 
L 315.825231 146.933271 
L 311.471811 144.658286 
L 310.331077 144.027251 
L 304.836923 141.212523 
L 300.891385 139.227429 
L 299.342769 138.279804 
L 293.848615 135.063726 
L 291.591575 133.796571 
L 288.354462 131.621978 
L 282.860308 128.409251 
L 282.775452 128.365714 
L 277.366154 125.297547 
L 272.062075 122.934857 
L 271.872 122.839535 
L 266.377846 120.614263 
L 260.883692 119.030243 
L 255.389538 118.033604 
L 249.895385 117.63589 
L 244.401231 117.894797 
L 238.907077 118.931227 
L 233.412923 120.974149 
L 230.072475 122.934857 
L 227.918769 124.306181 
L 223.340757 128.365714 
L 222.424615 129.381761 
L 218.998388 133.796571 
L 216.930462 137.490678 
L 215.956776 139.227429 
L 213.629464 144.658286 
L 211.878433 150.089143 
L 211.436308 151.75847 
L 210.264788 155.52 
L 208.830975 160.950857 
L 207.633152 166.381714 
L 206.789354 171.812571 
L 206.500793 177.243429 
L 206.949926 182.674286 
L 208.231815 188.105143 
L 210.359353 193.536 
L 211.436308 195.609273 
L 213.149969 198.966857 
L 216.428857 204.397714 
L 216.930462 205.186704 
L 220.007518 209.828571 
L 222.424615 213.36722 
L 223.950254 215.259429 
L 227.918769 220.154275 
L 228.565566 220.690286 
L 233.412923 224.749128 
L 237.791326 226.121143 
L 238.907077 226.483429 
L 242.84958 226.121143 
L 244.401231 226.013348 
L 249.895385 224.064868 
L 255.389538 220.842136 
L 255.592739 220.690286 
L 260.883692 216.955492 
L 263.044922 215.259429 
L 266.377846 212.587004 
L 270.274885 209.828571 
L 271.872 208.699496 
L 277.366154 206.544135 
L 282.860308 206.383908 
L 288.354462 207.773724 
L 293.022522 209.828571 
L 293.848615 210.377517 
L 298.572893 215.259429 
L 299.342769 218.521952 
L 299.703773 220.690286 
L 299.342769 223.642731 
L 299.070839 226.121143 
L 297.999263 231.552 
L 297.226515 236.982857 
L 297.046104 242.413714 
L 297.597912 247.844571 
L 299.012669 253.275429 
L 299.342769 254.058206 
L 301.357565 258.706286 
L 304.836923 263.918338 
L 305.026061 264.137143 
L 310.331077 268.961119 
L 311.505599 269.568 
z
M 314.550712 258.706286 
L 310.331077 254.579861 
L 309.508956 253.275429 
L 307.648506 247.844571 
L 307.31218 242.413714 
L 308.337763 236.982857 
L 310.331077 232.060996 
L 310.633537 231.552 
L 314.605891 226.121143 
L 315.825231 224.474988 
L 320.815889 220.690286 
L 321.319385 220.250312 
L 326.813538 218.921009 
L 330.309196 220.690286 
L 332.307692 222.40534 
L 333.530746 226.121143 
L 334.175627 231.552 
L 334.223742 236.982857 
L 333.855574 242.413714 
L 332.969441 247.844571 
L 332.307692 250.03064 
L 330.880116 253.275429 
L 326.813538 258.639839 
L 326.680582 258.706286 
L 321.319385 260.645977 
L 315.825231 259.592663 
z
M 236.044815 204.397714 
L 233.412923 202.541589 
L 230.180699 198.966857 
L 227.918769 195.86533 
L 226.523297 193.536 
L 224.057342 188.105143 
L 222.424615 182.893355 
L 222.363502 182.674286 
L 221.518606 177.243429 
L 221.177662 171.812571 
L 221.16112 166.381714 
L 221.388591 160.950857 
L 221.916199 155.52 
L 222.424615 152.790685 
L 222.902802 150.089143 
L 224.562193 144.658286 
L 227.240747 139.227429 
L 227.918769 138.271231 
L 231.802257 133.796571 
L 233.412923 132.419575 
L 238.907077 129.240423 
L 241.756456 128.365714 
L 244.401231 127.631623 
L 249.895385 127.21187 
L 255.389538 127.726704 
L 258.16563 128.365714 
L 260.883692 129.014959 
L 266.377846 130.876914 
L 271.872 133.128158 
L 273.320107 133.796571 
L 277.366154 135.686942 
L 282.860308 138.292959 
L 284.727236 139.227429 
L 288.354462 140.910146 
L 293.848615 143.349603 
L 296.798452 144.658286 
L 299.342769 145.689041 
L 304.836923 147.970113 
L 309.611489 150.089143 
L 310.331077 150.429369 
L 315.825231 153.585962 
L 318.588289 155.52 
L 321.319385 158.294553 
L 323.503196 160.950857 
L 325.530683 166.381714 
L 325.627827 171.812571 
L 324.503212 177.243429 
L 322.653692 182.674286 
L 321.319385 185.961386 
L 320.168941 188.105143 
L 316.641768 193.536 
L 315.825231 194.634966 
L 310.331077 197.868155 
L 304.836923 198.392531 
L 299.342769 197.662075 
L 293.848615 196.091744 
L 288.354462 193.931072 
L 287.349435 193.536 
L 282.860308 191.609148 
L 277.366154 189.613298 
L 271.872 188.826402 
L 266.377846 190.572397 
L 263.174327 193.536 
L 260.883692 195.837965 
L 258.270917 198.966857 
L 255.389538 201.822018 
L 251.959317 204.397714 
L 249.895385 205.649372 
L 244.401231 207.01638 
L 238.907077 206.09411 
z
" style="fill:#fed976;"/>
    <path clip-path="url(#p408d3248df)" d="M 392.743385 207.869472 
L 398.237538 209.303321 
L 401.651501 204.397714 
L 398.840021 198.966857 
L 398.237538 198.607347 
L 392.743385 198.727893 
L 392.35721 198.966857 
L 390.341906 204.397714 
z
" style="fill:#fed976;"/>
    <path clip-path="url(#p408d3248df)" d="M 260.883692 76.455618 
L 266.377846 77.904119 
L 271.872 77.775732 
L 277.366154 76.005002 
L 280.345333 74.057143 
L 282.860308 71.69261 
L 285.080695 68.626286 
L 286.78666 63.195429 
L 286.421172 57.764571 
L 284.000259 52.333714 
L 282.860308 50.953489 
L 278.592143 46.902857 
L 277.366154 46.060958 
L 271.872 43.589055 
L 266.377846 42.565177 
L 260.883692 43.05946 
L 255.389538 45.452158 
L 253.5789 46.902857 
L 249.895385 51.982777 
L 249.702495 52.333714 
L 248.520899 57.764571 
L 249.110762 63.195429 
L 249.895385 65.104183 
L 251.59186 68.626286 
L 255.389538 72.996531 
L 256.787329 74.057143 
z
" style="fill:#fed976;"/>
   </g>
   <g id="PathCollection_7">
    <path clip-path="url(#p408d3248df)" d="M 63.094154 307.584 
L 68.588308 307.584 
L 70.120423 307.584 
L 68.958522 302.153143 
L 68.588308 301.56301 
L 63.691165 296.722286 
L 63.094154 296.356337 
L 57.6 295.207822 
L 57.6 296.722286 
L 57.6 302.153143 
L 57.6 307.584 
z
" style="fill:#feb24c;"/>
    <path clip-path="url(#p408d3248df)" d="M 315.825231 259.592663 
L 321.319385 260.645977 
L 326.680582 258.706286 
L 326.813538 258.639839 
L 330.880116 253.275429 
L 332.307692 250.03064 
L 332.969441 247.844571 
L 333.855574 242.413714 
L 334.223742 236.982857 
L 334.175627 231.552 
L 333.530746 226.121143 
L 332.307692 222.40534 
L 330.309196 220.690286 
L 326.813538 218.921009 
L 321.319385 220.250312 
L 320.815889 220.690286 
L 315.825231 224.474988 
L 314.605891 226.121143 
L 310.633537 231.552 
L 310.331077 232.060996 
L 308.337763 236.982857 
L 307.31218 242.413714 
L 307.648506 247.844571 
L 309.508956 253.275429 
L 310.331077 254.579861 
L 314.550712 258.706286 
z
" style="fill:#feb24c;"/>
    <path clip-path="url(#p408d3248df)" d="M 238.907077 206.09411 
L 244.401231 207.01638 
L 249.895385 205.649372 
L 251.959317 204.397714 
L 255.389538 201.822018 
L 258.270917 198.966857 
L 260.883692 195.837965 
L 263.174327 193.536 
L 266.377846 190.572397 
L 271.872 188.826402 
L 277.366154 189.613298 
L 282.860308 191.609148 
L 287.349435 193.536 
L 288.354462 193.931072 
L 293.848615 196.091744 
L 299.342769 197.662075 
L 304.836923 198.392531 
L 310.331077 197.868155 
L 315.825231 194.634966 
L 316.641768 193.536 
L 320.168941 188.105143 
L 321.319385 185.961386 
L 322.653692 182.674286 
L 324.503212 177.243429 
L 325.627827 171.812571 
L 325.530683 166.381714 
L 323.503196 160.950857 
L 321.319385 158.294553 
L 318.588289 155.52 
L 315.825231 153.585962 
L 310.331077 150.429369 
L 309.611489 150.089143 
L 304.836923 147.970113 
L 299.342769 145.689041 
L 296.798452 144.658286 
L 293.848615 143.349603 
L 288.354462 140.910146 
L 284.727236 139.227429 
L 282.860308 138.292959 
L 277.366154 135.686942 
L 273.320107 133.796571 
L 271.872 133.128158 
L 266.377846 130.876914 
L 260.883692 129.014959 
L 258.16563 128.365714 
L 255.389538 127.726704 
L 249.895385 127.21187 
L 244.401231 127.631623 
L 241.756456 128.365714 
L 238.907077 129.240423 
L 233.412923 132.419575 
L 231.802257 133.796571 
L 227.918769 138.271231 
L 227.240747 139.227429 
L 224.562193 144.658286 
L 222.902802 150.089143 
L 222.424615 152.790685 
L 221.916199 155.52 
L 221.388591 160.950857 
L 221.16112 166.381714 
L 221.177662 171.812571 
L 221.518606 177.243429 
L 222.363502 182.674286 
L 222.424615 182.893355 
L 224.057342 188.105143 
L 226.523297 193.536 
L 227.918769 195.86533 
L 230.180699 198.966857 
L 233.412923 202.541589 
L 236.044815 204.397714 
z
M 298.913388 188.105143 
L 293.848615 186.571079 
L 288.354462 183.68218 
L 286.738032 182.674286 
L 282.860308 179.708332 
L 279.412602 177.243429 
L 277.366154 175.445228 
L 271.872 172.119192 
L 270.768011 171.812571 
L 266.377846 170.505659 
L 260.883692 170.746788 
L 256.683803 171.812571 
L 255.389538 172.24496 
L 249.895385 174.472211 
L 244.401231 175.524741 
L 238.907077 172.708657 
L 238.346022 171.812571 
L 234.85562 166.381714 
L 233.412923 163.29323 
L 232.763629 160.950857 
L 232.010973 155.52 
L 232.36142 150.089143 
L 233.412923 146.718703 
L 234.215298 144.658286 
L 238.548049 139.227429 
L 238.907077 138.935825 
L 244.401231 136.331091 
L 249.895385 135.539438 
L 255.389538 136.159702 
L 260.883692 137.758646 
L 264.678608 139.227429 
L 266.377846 140.08725 
L 271.872 142.790355 
L 276.415259 144.658286 
L 277.366154 145.1213 
L 282.860308 147.276208 
L 288.354462 148.903619 
L 292.605644 150.089143 
L 293.848615 150.440155 
L 299.342769 152.19168 
L 304.836923 154.126358 
L 307.97166 155.52 
L 310.331077 156.866041 
L 315.545024 160.950857 
L 315.825231 161.376616 
L 318.273935 166.381714 
L 318.483094 171.812571 
L 316.951 177.243429 
L 315.825231 179.497014 
L 313.52745 182.674286 
L 310.331077 185.872151 
L 305.130594 188.105143 
L 304.836923 188.213032 
L 299.342769 188.22664 
z
" style="fill:#feb24c;"/>
   </g>
   <g id="PathCollection_8">
    <path clip-path="url(#p408d3248df)" d="M 299.342769 188.22664 
L 304.836923 188.213032 
L 305.130594 188.105143 
L 310.331077 185.872151 
L 313.52745 182.674286 
L 315.825231 179.497014 
L 316.951 177.243429 
L 318.483094 171.812571 
L 318.273935 166.381714 
L 315.825231 161.376616 
L 315.545024 160.950857 
L 310.331077 156.866041 
L 307.97166 155.52 
L 304.836923 154.126358 
L 299.342769 152.19168 
L 293.848615 150.440155 
L 292.605644 150.089143 
L 288.354462 148.903619 
L 282.860308 147.276208 
L 277.366154 145.1213 
L 276.415259 144.658286 
L 271.872 142.790355 
L 266.377846 140.08725 
L 264.678608 139.227429 
L 260.883692 137.758646 
L 255.389538 136.159702 
L 249.895385 135.539438 
L 244.401231 136.331091 
L 238.907077 138.935825 
L 238.548049 139.227429 
L 234.215298 144.658286 
L 233.412923 146.718703 
L 232.36142 150.089143 
L 232.010973 155.52 
L 232.763629 160.950857 
L 233.412923 163.29323 
L 234.85562 166.381714 
L 238.346022 171.812571 
L 238.907077 172.708657 
L 244.401231 175.524741 
L 249.895385 174.472211 
L 255.389538 172.24496 
L 256.683803 171.812571 
L 260.883692 170.746788 
L 266.377846 170.505659 
L 270.768011 171.812571 
L 271.872 172.119192 
L 277.366154 175.445228 
L 279.412602 177.243429 
L 282.860308 179.708332 
L 286.738032 182.674286 
L 288.354462 183.68218 
L 293.848615 186.571079 
L 298.913388 188.105143 
z
M 298.21306 177.243429 
L 293.848615 174.75667 
L 290.72041 171.812571 
L 288.354462 167.312852 
L 287.838159 166.381714 
L 288.354462 164.483678 
L 291.093318 160.950857 
L 293.848615 160.370607 
L 299.342769 160.675778 
L 300.236258 160.950857 
L 304.836923 163.272415 
L 308.052422 166.381714 
L 308.702571 171.812571 
L 304.836923 176.938005 
L 303.317094 177.243429 
L 299.342769 177.662023 
z
" style="fill:#fd8d3c;"/>
   </g>
   <g id="PathCollection_9">
    <path clip-path="url(#p408d3248df)" d="M 299.342769 177.662023 
L 303.317094 177.243429 
L 304.836923 176.938005 
L 308.702571 171.812571 
L 308.052422 166.381714 
L 304.836923 163.272415 
L 300.236258 160.950857 
L 299.342769 160.675778 
L 293.848615 160.370607 
L 291.093318 160.950857 
L 288.354462 164.483678 
L 287.838159 166.381714 
L 288.354462 167.312852 
L 290.72041 171.812571 
L 293.848615 174.75667 
L 298.21306 177.243429 
z
" style="fill:#fc4e2a;"/>
   </g>
   <g id="PathCollection_10"/>
   <g id="PathCollection_11"/>
  </g>
 </g>
 <defs>
  <clipPath id="p408d3248df">
   <rect height="266.112" width="357.12" x="57.6" y="41.472"/>
  </clipPath>
 </defs>
</svg>
